<?xml version="1.0" encoding="UTF-8" standalone="no"?>
<!DOCTYPE svg PUBLIC "-//W3C//DTD SVG 1.1//EN"
 "http://www.w3.org/Graphics/SVG/1.1/DTD/svg11.dtd">
<!-- Generated by graphviz version 2.36.0 (20140111.2315)
 -->
<!-- Title: G Pages: 1 -->
<svg width="390pt" height="203pt"
 viewBox="0.00 0.00 390.00 203.00" xmlns="http://www.w3.org/2000/svg" xmlns:xlink="http://www.w3.org/1999/xlink">
<g id="graph0" class="graph" transform="scale(1 1) rotate(0) translate(4 199)">
<title>G</title>
<polygon fill="white" stroke="none" points="-4,4 -4,-199 386,-199 386,4 -4,4"/>
<g id="clust1" class="cluster"><title>cluster_Global</title>
<path fill="none" stroke="gray" d="M256,-8C256,-8 362,-8 362,-8 368,-8 374,-14 374,-20 374,-20 374,-175 374,-175 374,-181 368,-187 362,-187 362,-187 256,-187 256,-187 250,-187 244,-181 244,-175 244,-175 244,-20 244,-20 244,-14 250,-8 256,-8"/>
<text text-anchor="middle" x="309" y="-174.2" font-family="Times,serif" font-size="11.00" fill="gray">Global</text>
</g>
<!-- \\Syndication -->
<g id="node1" class="node"><title>\\Syndication</title>
<polygon fill="none" stroke="black" points="343.052,-160 274.948,-160 274.948,-124 343.052,-124 343.052,-160"/>
<text text-anchor="middle" x="309" y="-138.7" font-family="Times,serif" font-size="11.00">Syndication</text>
</g>
<!-- \\SyndicationApiClient -->
<g id="node4" class="node"><title>\\SyndicationApiClient</title>
<ellipse fill="none" stroke="black" cx="90" cy="-142" rx="89.8878" ry="18"/>
<text text-anchor="middle" x="90" y="-137.8" font-family="Times,serif" font-size="14.00" fill="gray">\SyndicationApiClient</text>
</g>
<!-- \\Syndication&#45;&gt;\\SyndicationApiClient -->
<g id="edge1" class="edge"><title>\\Syndication&#45;&gt;\\SyndicationApiClient</title>
<path fill="none" stroke="black" d="M274.569,-142C251.818,-142 220.43,-142 190.039,-142"/>
<polygon fill="none" stroke="black" points="189.784,-138.5 179.784,-142 189.784,-145.5 189.784,-138.5"/>
</g>
<!-- \\SyndicationAPIClient -->
<g id="node2" class="node"><title>\\SyndicationAPIClient</title>
<polygon fill="none" stroke="black" points="365.663,-106 252.337,-106 252.337,-70 365.663,-70 365.663,-106"/>
<text text-anchor="middle" x="309" y="-84.7" font-family="Times,serif" font-size="11.00">SyndicationAPIClient</text>
</g>
<!-- \\SyndicationResponse -->
<g id="node3" class="node"><title>\\SyndicationResponse</title>
<polygon fill="none" stroke="black" points="364.214,-52 253.786,-52 253.786,-16 364.214,-16 364.214,-52"/>
<text text-anchor="middle" x="309" y="-30.7" font-family="Times,serif" font-size="11.00">SyndicationResponse</text>
</g>
</g>
</svg>
