<?xml version="1.0" encoding="UTF-8" standalone="no"?>
<!DOCTYPE svg PUBLIC "-//W3C//DTD SVG 1.1//EN"
 "http://www.w3.org/Graphics/SVG/1.1/DTD/svg11.dtd">
<!-- Generated by graphviz version 2.34.0 (20131230.1649)
 -->
<!-- Title: G Pages: 1 -->
<svg width="152pt" height="151pt"
 viewBox="0.00 0.00 152.00 151.00" xmlns="http://www.w3.org/2000/svg" xmlns:xlink="http://www.w3.org/1999/xlink">
<g id="graph0" class="graph" transform="scale(1 1) rotate(0) translate(4 147)">
<title>G</title>
<polygon fill="white" stroke="white" points="-4,4 -4,-147 148,-147 148,4 -4,4"/>
<g id="clust1" class="cluster"><title>cluster_Global</title>
<path fill="none" stroke="gray" d="M20,-8C20,-8 124,-8 124,-8 130,-8 136,-14 136,-20 136,-20 136,-123 136,-123 136,-129 130,-135 124,-135 124,-135 20,-135 20,-135 14,-135 8,-129 8,-123 8,-123 8,-20 8,-20 8,-14 14,-8 20,-8"/>
<text text-anchor="middle" x="72" y="-120" font-family="Times,serif" font-size="11.00" fill="gray">Global</text>
</g>
<!-- \\SyndicationResponse -->
<g id="node1" class="node"><title>\\SyndicationResponse</title>
<polygon fill="none" stroke="black" points="127.214,-106 16.7858,-106 16.7858,-70 127.214,-70 127.214,-106"/>
<text text-anchor="middle" x="72" y="-83.6" font-family="Times,serif" font-size="11.00">SyndicationResponse</text>
</g>
<!-- \\Syndication -->
<g id="node2" class="node"><title>\\Syndication</title>
<polygon fill="none" stroke="black" points="106.052,-52 37.9478,-52 37.9478,-16 106.052,-16 106.052,-52"/>
<text text-anchor="middle" x="72" y="-29.6" font-family="Times,serif" font-size="11.00">Syndication</text>
</g>
</g>
</svg>
